%TF.GenerationSoftware,KiCad,Pcbnew,(6.0.11)*%
%TF.CreationDate,2024-01-24T22:39:11+00:00*%
%TF.ProjectId,BBC_Volume_Extender_Internal,4242435f-566f-46c7-956d-655f45787465,rev?*%
%TF.SameCoordinates,Original*%
%TF.FileFunction,Drillmap*%
%TF.FilePolarity,Positive*%
%FSLAX45Y45*%
G04 Gerber Fmt 4.5, Leading zero omitted, Abs format (unit mm)*
G04 Created by KiCad (PCBNEW (6.0.11)) date 2024-01-24 22:39:11*
%MOMM*%
%LPD*%
G01*
G04 APERTURE LIST*
%ADD10C,0.100000*%
%ADD11C,0.200000*%
%ADD12C,0.080000*%
G04 APERTURE END LIST*
D10*
X15110000Y-10583000D02*
X16120000Y-10583000D01*
X16120000Y-10583000D02*
X16120000Y-8586000D01*
X16120000Y-8586000D02*
X15110000Y-8586000D01*
X15110000Y-8586000D02*
X15110000Y-10583000D01*
D11*
D12*
X15321000Y-10043500D02*
X15401000Y-10123500D01*
X15401000Y-10043500D02*
X15321000Y-10123500D01*
X15575000Y-9789500D02*
X15655000Y-9869500D01*
X15655000Y-9789500D02*
X15575000Y-9869500D01*
X15829000Y-10043500D02*
X15909000Y-10123500D01*
X15909000Y-10043500D02*
X15829000Y-10123500D01*
D10*
X15409500Y-9136500D02*
G75*
G03*
X15409500Y-9136500I-50000J0D01*
G01*
X15409500Y-9390500D02*
G75*
G03*
X15409500Y-9390500I-50000J0D01*
G01*
X15412500Y-8771000D02*
G75*
G03*
X15412500Y-8771000I-50000J0D01*
G01*
X15663500Y-9136500D02*
G75*
G03*
X15663500Y-9136500I-50000J0D01*
G01*
X15663500Y-9390500D02*
G75*
G03*
X15663500Y-9390500I-50000J0D01*
G01*
X15666500Y-8771000D02*
G75*
G03*
X15666500Y-8771000I-50000J0D01*
G01*
X15917500Y-9136500D02*
G75*
G03*
X15917500Y-9136500I-50000J0D01*
G01*
X15917500Y-9390500D02*
G75*
G03*
X15917500Y-9390500I-50000J0D01*
G01*
X15920500Y-8771000D02*
G75*
G03*
X15920500Y-8771000I-50000J0D01*
G01*
D11*
X15362619Y-10898476D02*
X15362619Y-10698476D01*
X15410238Y-10698476D01*
X15438809Y-10708000D01*
X15457857Y-10727048D01*
X15467381Y-10746095D01*
X15476905Y-10784190D01*
X15476905Y-10812762D01*
X15467381Y-10850857D01*
X15457857Y-10869905D01*
X15438809Y-10888952D01*
X15410238Y-10898476D01*
X15362619Y-10898476D01*
X15562619Y-10898476D02*
X15562619Y-10765143D01*
X15562619Y-10803238D02*
X15572143Y-10784190D01*
X15581667Y-10774667D01*
X15600714Y-10765143D01*
X15619762Y-10765143D01*
X15686428Y-10898476D02*
X15686428Y-10765143D01*
X15686428Y-10698476D02*
X15676905Y-10708000D01*
X15686428Y-10717524D01*
X15695952Y-10708000D01*
X15686428Y-10698476D01*
X15686428Y-10717524D01*
X15810238Y-10898476D02*
X15791190Y-10888952D01*
X15781667Y-10869905D01*
X15781667Y-10698476D01*
X15915000Y-10898476D02*
X15895952Y-10888952D01*
X15886428Y-10869905D01*
X15886428Y-10698476D01*
X16143571Y-10898476D02*
X16143571Y-10698476D01*
X16210238Y-10841333D01*
X16276905Y-10698476D01*
X16276905Y-10898476D01*
X16457857Y-10898476D02*
X16457857Y-10793714D01*
X16448333Y-10774667D01*
X16429286Y-10765143D01*
X16391190Y-10765143D01*
X16372143Y-10774667D01*
X16457857Y-10888952D02*
X16438809Y-10898476D01*
X16391190Y-10898476D01*
X16372143Y-10888952D01*
X16362619Y-10869905D01*
X16362619Y-10850857D01*
X16372143Y-10831810D01*
X16391190Y-10822286D01*
X16438809Y-10822286D01*
X16457857Y-10812762D01*
X16553095Y-10765143D02*
X16553095Y-10965143D01*
X16553095Y-10774667D02*
X16572143Y-10765143D01*
X16610238Y-10765143D01*
X16629286Y-10774667D01*
X16638809Y-10784190D01*
X16648333Y-10803238D01*
X16648333Y-10860381D01*
X16638809Y-10879429D01*
X16629286Y-10888952D01*
X16610238Y-10898476D01*
X16572143Y-10898476D01*
X16553095Y-10888952D01*
X16734048Y-10879429D02*
X16743571Y-10888952D01*
X16734048Y-10898476D01*
X16724524Y-10888952D01*
X16734048Y-10879429D01*
X16734048Y-10898476D01*
X16734048Y-10774667D02*
X16743571Y-10784190D01*
X16734048Y-10793714D01*
X16724524Y-10784190D01*
X16734048Y-10774667D01*
X16734048Y-10793714D01*
D12*
X15025000Y-11188000D02*
X15105000Y-11268000D01*
X15105000Y-11188000D02*
X15025000Y-11268000D01*
D11*
X15400714Y-11118476D02*
X15419762Y-11118476D01*
X15438809Y-11128000D01*
X15448333Y-11137524D01*
X15457857Y-11156571D01*
X15467381Y-11194667D01*
X15467381Y-11242286D01*
X15457857Y-11280381D01*
X15448333Y-11299428D01*
X15438809Y-11308952D01*
X15419762Y-11318476D01*
X15400714Y-11318476D01*
X15381667Y-11308952D01*
X15372143Y-11299428D01*
X15362619Y-11280381D01*
X15353095Y-11242286D01*
X15353095Y-11194667D01*
X15362619Y-11156571D01*
X15372143Y-11137524D01*
X15381667Y-11128000D01*
X15400714Y-11118476D01*
X15553095Y-11299428D02*
X15562619Y-11308952D01*
X15553095Y-11318476D01*
X15543571Y-11308952D01*
X15553095Y-11299428D01*
X15553095Y-11318476D01*
X15676905Y-11204190D02*
X15657857Y-11194667D01*
X15648333Y-11185143D01*
X15638809Y-11166095D01*
X15638809Y-11156571D01*
X15648333Y-11137524D01*
X15657857Y-11128000D01*
X15676905Y-11118476D01*
X15715000Y-11118476D01*
X15734048Y-11128000D01*
X15743571Y-11137524D01*
X15753095Y-11156571D01*
X15753095Y-11166095D01*
X15743571Y-11185143D01*
X15734048Y-11194667D01*
X15715000Y-11204190D01*
X15676905Y-11204190D01*
X15657857Y-11213714D01*
X15648333Y-11223238D01*
X15638809Y-11242286D01*
X15638809Y-11280381D01*
X15648333Y-11299428D01*
X15657857Y-11308952D01*
X15676905Y-11318476D01*
X15715000Y-11318476D01*
X15734048Y-11308952D01*
X15743571Y-11299428D01*
X15753095Y-11280381D01*
X15753095Y-11242286D01*
X15743571Y-11223238D01*
X15734048Y-11213714D01*
X15715000Y-11204190D01*
X15876905Y-11118476D02*
X15895952Y-11118476D01*
X15915000Y-11128000D01*
X15924524Y-11137524D01*
X15934048Y-11156571D01*
X15943571Y-11194667D01*
X15943571Y-11242286D01*
X15934048Y-11280381D01*
X15924524Y-11299428D01*
X15915000Y-11308952D01*
X15895952Y-11318476D01*
X15876905Y-11318476D01*
X15857857Y-11308952D01*
X15848333Y-11299428D01*
X15838809Y-11280381D01*
X15829286Y-11242286D01*
X15829286Y-11194667D01*
X15838809Y-11156571D01*
X15848333Y-11137524D01*
X15857857Y-11128000D01*
X15876905Y-11118476D01*
X16067381Y-11118476D02*
X16086428Y-11118476D01*
X16105476Y-11128000D01*
X16115000Y-11137524D01*
X16124524Y-11156571D01*
X16134048Y-11194667D01*
X16134048Y-11242286D01*
X16124524Y-11280381D01*
X16115000Y-11299428D01*
X16105476Y-11308952D01*
X16086428Y-11318476D01*
X16067381Y-11318476D01*
X16048333Y-11308952D01*
X16038809Y-11299428D01*
X16029286Y-11280381D01*
X16019762Y-11242286D01*
X16019762Y-11194667D01*
X16029286Y-11156571D01*
X16038809Y-11137524D01*
X16048333Y-11128000D01*
X16067381Y-11118476D01*
X16219762Y-11318476D02*
X16219762Y-11185143D01*
X16219762Y-11204190D02*
X16229286Y-11194667D01*
X16248333Y-11185143D01*
X16276905Y-11185143D01*
X16295952Y-11194667D01*
X16305476Y-11213714D01*
X16305476Y-11318476D01*
X16305476Y-11213714D02*
X16315000Y-11194667D01*
X16334048Y-11185143D01*
X16362619Y-11185143D01*
X16381667Y-11194667D01*
X16391190Y-11213714D01*
X16391190Y-11318476D01*
X16486428Y-11318476D02*
X16486428Y-11185143D01*
X16486428Y-11204190D02*
X16495952Y-11194667D01*
X16515000Y-11185143D01*
X16543571Y-11185143D01*
X16562619Y-11194667D01*
X16572143Y-11213714D01*
X16572143Y-11318476D01*
X16572143Y-11213714D02*
X16581667Y-11194667D01*
X16600714Y-11185143D01*
X16629286Y-11185143D01*
X16648333Y-11194667D01*
X16657857Y-11213714D01*
X16657857Y-11318476D01*
X17048333Y-11108952D02*
X16876905Y-11366095D01*
X17305476Y-11118476D02*
X17324524Y-11118476D01*
X17343571Y-11128000D01*
X17353095Y-11137524D01*
X17362619Y-11156571D01*
X17372143Y-11194667D01*
X17372143Y-11242286D01*
X17362619Y-11280381D01*
X17353095Y-11299428D01*
X17343571Y-11308952D01*
X17324524Y-11318476D01*
X17305476Y-11318476D01*
X17286429Y-11308952D01*
X17276905Y-11299428D01*
X17267381Y-11280381D01*
X17257857Y-11242286D01*
X17257857Y-11194667D01*
X17267381Y-11156571D01*
X17276905Y-11137524D01*
X17286429Y-11128000D01*
X17305476Y-11118476D01*
X17457857Y-11299428D02*
X17467381Y-11308952D01*
X17457857Y-11318476D01*
X17448333Y-11308952D01*
X17457857Y-11299428D01*
X17457857Y-11318476D01*
X17591190Y-11118476D02*
X17610238Y-11118476D01*
X17629286Y-11128000D01*
X17638810Y-11137524D01*
X17648333Y-11156571D01*
X17657857Y-11194667D01*
X17657857Y-11242286D01*
X17648333Y-11280381D01*
X17638810Y-11299428D01*
X17629286Y-11308952D01*
X17610238Y-11318476D01*
X17591190Y-11318476D01*
X17572143Y-11308952D01*
X17562619Y-11299428D01*
X17553095Y-11280381D01*
X17543571Y-11242286D01*
X17543571Y-11194667D01*
X17553095Y-11156571D01*
X17562619Y-11137524D01*
X17572143Y-11128000D01*
X17591190Y-11118476D01*
X17724524Y-11118476D02*
X17848333Y-11118476D01*
X17781667Y-11194667D01*
X17810238Y-11194667D01*
X17829286Y-11204190D01*
X17838810Y-11213714D01*
X17848333Y-11232762D01*
X17848333Y-11280381D01*
X17838810Y-11299428D01*
X17829286Y-11308952D01*
X17810238Y-11318476D01*
X17753095Y-11318476D01*
X17734048Y-11308952D01*
X17724524Y-11299428D01*
X18038810Y-11318476D02*
X17924524Y-11318476D01*
X17981667Y-11318476D02*
X17981667Y-11118476D01*
X17962619Y-11147048D01*
X17943571Y-11166095D01*
X17924524Y-11175619D01*
X18219762Y-11118476D02*
X18124524Y-11118476D01*
X18115000Y-11213714D01*
X18124524Y-11204190D01*
X18143571Y-11194667D01*
X18191190Y-11194667D01*
X18210238Y-11204190D01*
X18219762Y-11213714D01*
X18229286Y-11232762D01*
X18229286Y-11280381D01*
X18219762Y-11299428D01*
X18210238Y-11308952D01*
X18191190Y-11318476D01*
X18143571Y-11318476D01*
X18124524Y-11308952D01*
X18115000Y-11299428D01*
X18305476Y-11118476D02*
X18305476Y-11156571D01*
X18381667Y-11118476D02*
X18381667Y-11156571D01*
X18676905Y-11394667D02*
X18667381Y-11385143D01*
X18648333Y-11356571D01*
X18638810Y-11337524D01*
X18629286Y-11308952D01*
X18619762Y-11261333D01*
X18619762Y-11223238D01*
X18629286Y-11175619D01*
X18638810Y-11147048D01*
X18648333Y-11128000D01*
X18667381Y-11099429D01*
X18676905Y-11089905D01*
X18734048Y-11118476D02*
X18857857Y-11118476D01*
X18791190Y-11194667D01*
X18819762Y-11194667D01*
X18838810Y-11204190D01*
X18848333Y-11213714D01*
X18857857Y-11232762D01*
X18857857Y-11280381D01*
X18848333Y-11299428D01*
X18838810Y-11308952D01*
X18819762Y-11318476D01*
X18762619Y-11318476D01*
X18743571Y-11308952D01*
X18734048Y-11299428D01*
X19095952Y-11318476D02*
X19095952Y-11118476D01*
X19181667Y-11318476D02*
X19181667Y-11213714D01*
X19172143Y-11194667D01*
X19153095Y-11185143D01*
X19124524Y-11185143D01*
X19105476Y-11194667D01*
X19095952Y-11204190D01*
X19305476Y-11318476D02*
X19286429Y-11308952D01*
X19276905Y-11299428D01*
X19267381Y-11280381D01*
X19267381Y-11223238D01*
X19276905Y-11204190D01*
X19286429Y-11194667D01*
X19305476Y-11185143D01*
X19334048Y-11185143D01*
X19353095Y-11194667D01*
X19362619Y-11204190D01*
X19372143Y-11223238D01*
X19372143Y-11280381D01*
X19362619Y-11299428D01*
X19353095Y-11308952D01*
X19334048Y-11318476D01*
X19305476Y-11318476D01*
X19486429Y-11318476D02*
X19467381Y-11308952D01*
X19457857Y-11289905D01*
X19457857Y-11118476D01*
X19638810Y-11308952D02*
X19619762Y-11318476D01*
X19581667Y-11318476D01*
X19562619Y-11308952D01*
X19553095Y-11289905D01*
X19553095Y-11213714D01*
X19562619Y-11194667D01*
X19581667Y-11185143D01*
X19619762Y-11185143D01*
X19638810Y-11194667D01*
X19648333Y-11213714D01*
X19648333Y-11232762D01*
X19553095Y-11251809D01*
X19724524Y-11308952D02*
X19743571Y-11318476D01*
X19781667Y-11318476D01*
X19800714Y-11308952D01*
X19810238Y-11289905D01*
X19810238Y-11280381D01*
X19800714Y-11261333D01*
X19781667Y-11251809D01*
X19753095Y-11251809D01*
X19734048Y-11242286D01*
X19724524Y-11223238D01*
X19724524Y-11213714D01*
X19734048Y-11194667D01*
X19753095Y-11185143D01*
X19781667Y-11185143D01*
X19800714Y-11194667D01*
X19876905Y-11394667D02*
X19886429Y-11385143D01*
X19905476Y-11356571D01*
X19915000Y-11337524D01*
X19924524Y-11308952D01*
X19934048Y-11261333D01*
X19934048Y-11223238D01*
X19924524Y-11175619D01*
X19915000Y-11147048D01*
X19905476Y-11128000D01*
X19886429Y-11099429D01*
X19876905Y-11089905D01*
D10*
X15105000Y-11492000D02*
G75*
G03*
X15105000Y-11492000I-50000J0D01*
G01*
D11*
X15467381Y-11582476D02*
X15353095Y-11582476D01*
X15410238Y-11582476D02*
X15410238Y-11382476D01*
X15391190Y-11411048D01*
X15372143Y-11430095D01*
X15353095Y-11439619D01*
X15553095Y-11563428D02*
X15562619Y-11572952D01*
X15553095Y-11582476D01*
X15543571Y-11572952D01*
X15553095Y-11563428D01*
X15553095Y-11582476D01*
X15686428Y-11382476D02*
X15705476Y-11382476D01*
X15724524Y-11392000D01*
X15734048Y-11401524D01*
X15743571Y-11420571D01*
X15753095Y-11458667D01*
X15753095Y-11506286D01*
X15743571Y-11544381D01*
X15734048Y-11563428D01*
X15724524Y-11572952D01*
X15705476Y-11582476D01*
X15686428Y-11582476D01*
X15667381Y-11572952D01*
X15657857Y-11563428D01*
X15648333Y-11544381D01*
X15638809Y-11506286D01*
X15638809Y-11458667D01*
X15648333Y-11420571D01*
X15657857Y-11401524D01*
X15667381Y-11392000D01*
X15686428Y-11382476D01*
X15876905Y-11382476D02*
X15895952Y-11382476D01*
X15915000Y-11392000D01*
X15924524Y-11401524D01*
X15934048Y-11420571D01*
X15943571Y-11458667D01*
X15943571Y-11506286D01*
X15934048Y-11544381D01*
X15924524Y-11563428D01*
X15915000Y-11572952D01*
X15895952Y-11582476D01*
X15876905Y-11582476D01*
X15857857Y-11572952D01*
X15848333Y-11563428D01*
X15838809Y-11544381D01*
X15829286Y-11506286D01*
X15829286Y-11458667D01*
X15838809Y-11420571D01*
X15848333Y-11401524D01*
X15857857Y-11392000D01*
X15876905Y-11382476D01*
X16067381Y-11382476D02*
X16086428Y-11382476D01*
X16105476Y-11392000D01*
X16115000Y-11401524D01*
X16124524Y-11420571D01*
X16134048Y-11458667D01*
X16134048Y-11506286D01*
X16124524Y-11544381D01*
X16115000Y-11563428D01*
X16105476Y-11572952D01*
X16086428Y-11582476D01*
X16067381Y-11582476D01*
X16048333Y-11572952D01*
X16038809Y-11563428D01*
X16029286Y-11544381D01*
X16019762Y-11506286D01*
X16019762Y-11458667D01*
X16029286Y-11420571D01*
X16038809Y-11401524D01*
X16048333Y-11392000D01*
X16067381Y-11382476D01*
X16219762Y-11582476D02*
X16219762Y-11449143D01*
X16219762Y-11468190D02*
X16229286Y-11458667D01*
X16248333Y-11449143D01*
X16276905Y-11449143D01*
X16295952Y-11458667D01*
X16305476Y-11477714D01*
X16305476Y-11582476D01*
X16305476Y-11477714D02*
X16315000Y-11458667D01*
X16334048Y-11449143D01*
X16362619Y-11449143D01*
X16381667Y-11458667D01*
X16391190Y-11477714D01*
X16391190Y-11582476D01*
X16486428Y-11582476D02*
X16486428Y-11449143D01*
X16486428Y-11468190D02*
X16495952Y-11458667D01*
X16515000Y-11449143D01*
X16543571Y-11449143D01*
X16562619Y-11458667D01*
X16572143Y-11477714D01*
X16572143Y-11582476D01*
X16572143Y-11477714D02*
X16581667Y-11458667D01*
X16600714Y-11449143D01*
X16629286Y-11449143D01*
X16648333Y-11458667D01*
X16657857Y-11477714D01*
X16657857Y-11582476D01*
X17048333Y-11372952D02*
X16876905Y-11630095D01*
X17305476Y-11382476D02*
X17324524Y-11382476D01*
X17343571Y-11392000D01*
X17353095Y-11401524D01*
X17362619Y-11420571D01*
X17372143Y-11458667D01*
X17372143Y-11506286D01*
X17362619Y-11544381D01*
X17353095Y-11563428D01*
X17343571Y-11572952D01*
X17324524Y-11582476D01*
X17305476Y-11582476D01*
X17286429Y-11572952D01*
X17276905Y-11563428D01*
X17267381Y-11544381D01*
X17257857Y-11506286D01*
X17257857Y-11458667D01*
X17267381Y-11420571D01*
X17276905Y-11401524D01*
X17286429Y-11392000D01*
X17305476Y-11382476D01*
X17457857Y-11563428D02*
X17467381Y-11572952D01*
X17457857Y-11582476D01*
X17448333Y-11572952D01*
X17457857Y-11563428D01*
X17457857Y-11582476D01*
X17591190Y-11382476D02*
X17610238Y-11382476D01*
X17629286Y-11392000D01*
X17638810Y-11401524D01*
X17648333Y-11420571D01*
X17657857Y-11458667D01*
X17657857Y-11506286D01*
X17648333Y-11544381D01*
X17638810Y-11563428D01*
X17629286Y-11572952D01*
X17610238Y-11582476D01*
X17591190Y-11582476D01*
X17572143Y-11572952D01*
X17562619Y-11563428D01*
X17553095Y-11544381D01*
X17543571Y-11506286D01*
X17543571Y-11458667D01*
X17553095Y-11420571D01*
X17562619Y-11401524D01*
X17572143Y-11392000D01*
X17591190Y-11382476D01*
X17724524Y-11382476D02*
X17848333Y-11382476D01*
X17781667Y-11458667D01*
X17810238Y-11458667D01*
X17829286Y-11468190D01*
X17838810Y-11477714D01*
X17848333Y-11496762D01*
X17848333Y-11544381D01*
X17838810Y-11563428D01*
X17829286Y-11572952D01*
X17810238Y-11582476D01*
X17753095Y-11582476D01*
X17734048Y-11572952D01*
X17724524Y-11563428D01*
X17943571Y-11582476D02*
X17981667Y-11582476D01*
X18000714Y-11572952D01*
X18010238Y-11563428D01*
X18029286Y-11534857D01*
X18038810Y-11496762D01*
X18038810Y-11420571D01*
X18029286Y-11401524D01*
X18019762Y-11392000D01*
X18000714Y-11382476D01*
X17962619Y-11382476D01*
X17943571Y-11392000D01*
X17934048Y-11401524D01*
X17924524Y-11420571D01*
X17924524Y-11468190D01*
X17934048Y-11487238D01*
X17943571Y-11496762D01*
X17962619Y-11506286D01*
X18000714Y-11506286D01*
X18019762Y-11496762D01*
X18029286Y-11487238D01*
X18038810Y-11468190D01*
X18210238Y-11449143D02*
X18210238Y-11582476D01*
X18162619Y-11372952D02*
X18115000Y-11515809D01*
X18238810Y-11515809D01*
X18305476Y-11382476D02*
X18305476Y-11420571D01*
X18381667Y-11382476D02*
X18381667Y-11420571D01*
X18676905Y-11658667D02*
X18667381Y-11649143D01*
X18648333Y-11620571D01*
X18638810Y-11601524D01*
X18629286Y-11572952D01*
X18619762Y-11525333D01*
X18619762Y-11487238D01*
X18629286Y-11439619D01*
X18638810Y-11411048D01*
X18648333Y-11392000D01*
X18667381Y-11363428D01*
X18676905Y-11353905D01*
X18762619Y-11582476D02*
X18800714Y-11582476D01*
X18819762Y-11572952D01*
X18829286Y-11563428D01*
X18848333Y-11534857D01*
X18857857Y-11496762D01*
X18857857Y-11420571D01*
X18848333Y-11401524D01*
X18838810Y-11392000D01*
X18819762Y-11382476D01*
X18781667Y-11382476D01*
X18762619Y-11392000D01*
X18753095Y-11401524D01*
X18743571Y-11420571D01*
X18743571Y-11468190D01*
X18753095Y-11487238D01*
X18762619Y-11496762D01*
X18781667Y-11506286D01*
X18819762Y-11506286D01*
X18838810Y-11496762D01*
X18848333Y-11487238D01*
X18857857Y-11468190D01*
X19095952Y-11582476D02*
X19095952Y-11382476D01*
X19181667Y-11582476D02*
X19181667Y-11477714D01*
X19172143Y-11458667D01*
X19153095Y-11449143D01*
X19124524Y-11449143D01*
X19105476Y-11458667D01*
X19095952Y-11468190D01*
X19305476Y-11582476D02*
X19286429Y-11572952D01*
X19276905Y-11563428D01*
X19267381Y-11544381D01*
X19267381Y-11487238D01*
X19276905Y-11468190D01*
X19286429Y-11458667D01*
X19305476Y-11449143D01*
X19334048Y-11449143D01*
X19353095Y-11458667D01*
X19362619Y-11468190D01*
X19372143Y-11487238D01*
X19372143Y-11544381D01*
X19362619Y-11563428D01*
X19353095Y-11572952D01*
X19334048Y-11582476D01*
X19305476Y-11582476D01*
X19486429Y-11582476D02*
X19467381Y-11572952D01*
X19457857Y-11553905D01*
X19457857Y-11382476D01*
X19638810Y-11572952D02*
X19619762Y-11582476D01*
X19581667Y-11582476D01*
X19562619Y-11572952D01*
X19553095Y-11553905D01*
X19553095Y-11477714D01*
X19562619Y-11458667D01*
X19581667Y-11449143D01*
X19619762Y-11449143D01*
X19638810Y-11458667D01*
X19648333Y-11477714D01*
X19648333Y-11496762D01*
X19553095Y-11515809D01*
X19724524Y-11572952D02*
X19743571Y-11582476D01*
X19781667Y-11582476D01*
X19800714Y-11572952D01*
X19810238Y-11553905D01*
X19810238Y-11544381D01*
X19800714Y-11525333D01*
X19781667Y-11515809D01*
X19753095Y-11515809D01*
X19734048Y-11506286D01*
X19724524Y-11487238D01*
X19724524Y-11477714D01*
X19734048Y-11458667D01*
X19753095Y-11449143D01*
X19781667Y-11449143D01*
X19800714Y-11458667D01*
X19876905Y-11658667D02*
X19886429Y-11649143D01*
X19905476Y-11620571D01*
X19915000Y-11601524D01*
X19924524Y-11572952D01*
X19934048Y-11525333D01*
X19934048Y-11487238D01*
X19924524Y-11439619D01*
X19915000Y-11411048D01*
X19905476Y-11392000D01*
X19886429Y-11363428D01*
X19876905Y-11353905D01*
M02*
