%TF.GenerationSoftware,KiCad,Pcbnew,(6.0.11)*%
%TF.CreationDate,2024-01-24T22:39:07+00:00*%
%TF.ProjectId,BBC_Volume_Extender_Internal,4242435f-566f-46c7-956d-655f45787465,rev?*%
%TF.SameCoordinates,Original*%
%TF.FileFunction,Legend,Top*%
%TF.FilePolarity,Positive*%
%FSLAX46Y46*%
G04 Gerber Fmt 4.6, Leading zero omitted, Abs format (unit mm)*
G04 Created by KiCad (PCBNEW (6.0.11)) date 2024-01-24 22:39:07*
%MOMM*%
%LPD*%
G01*
G04 APERTURE LIST*
%ADD10C,0.150000*%
G04 APERTURE END LIST*
D10*
X152454761Y-102941904D02*
X152454761Y-103513333D01*
X152416666Y-103627619D01*
X152340476Y-103703809D01*
X152226190Y-103741904D01*
X152150000Y-103741904D01*
X153216666Y-103741904D02*
X152835714Y-103741904D01*
X152835714Y-102941904D01*
X153940476Y-103665714D02*
X153902380Y-103703809D01*
X153788095Y-103741904D01*
X153711904Y-103741904D01*
X153597619Y-103703809D01*
X153521428Y-103627619D01*
X153483333Y-103551428D01*
X153445238Y-103399047D01*
X153445238Y-103284761D01*
X153483333Y-103132380D01*
X153521428Y-103056190D01*
X153597619Y-102980000D01*
X153711904Y-102941904D01*
X153788095Y-102941904D01*
X153902380Y-102980000D01*
X153940476Y-103018095D01*
X154511904Y-102941904D02*
X154511904Y-103513333D01*
X154473809Y-103627619D01*
X154397619Y-103703809D01*
X154283333Y-103741904D01*
X154207142Y-103741904D01*
X155273809Y-103741904D02*
X154892857Y-103741904D01*
X154892857Y-102941904D01*
X155997619Y-103665714D02*
X155959523Y-103703809D01*
X155845238Y-103741904D01*
X155769047Y-103741904D01*
X155654761Y-103703809D01*
X155578571Y-103627619D01*
X155540476Y-103551428D01*
X155502380Y-103399047D01*
X155502380Y-103284761D01*
X155540476Y-103132380D01*
X155578571Y-103056190D01*
X155654761Y-102980000D01*
X155769047Y-102941904D01*
X155845238Y-102941904D01*
X155959523Y-102980000D01*
X155997619Y-103018095D01*
X156569047Y-102941904D02*
X156569047Y-103513333D01*
X156530952Y-103627619D01*
X156454761Y-103703809D01*
X156340476Y-103741904D01*
X156264285Y-103741904D01*
X157330952Y-103741904D02*
X156950000Y-103741904D01*
X156950000Y-102941904D01*
X158054761Y-103665714D02*
X158016666Y-103703809D01*
X157902380Y-103741904D01*
X157826190Y-103741904D01*
X157711904Y-103703809D01*
X157635714Y-103627619D01*
X157597619Y-103551428D01*
X157559523Y-103399047D01*
X157559523Y-103284761D01*
X157597619Y-103132380D01*
X157635714Y-103056190D01*
X157711904Y-102980000D01*
X157826190Y-102941904D01*
X157902380Y-102941904D01*
X158016666Y-102980000D01*
X158054761Y-103018095D01*
X158626190Y-102941904D02*
X158626190Y-103513333D01*
X158588095Y-103627619D01*
X158511904Y-103703809D01*
X158397619Y-103741904D01*
X158321428Y-103741904D01*
X159388095Y-103741904D02*
X159007142Y-103741904D01*
X159007142Y-102941904D01*
X160111904Y-103665714D02*
X160073809Y-103703809D01*
X159959523Y-103741904D01*
X159883333Y-103741904D01*
X159769047Y-103703809D01*
X159692857Y-103627619D01*
X159654761Y-103551428D01*
X159616666Y-103399047D01*
X159616666Y-103284761D01*
X159654761Y-103132380D01*
X159692857Y-103056190D01*
X159769047Y-102980000D01*
X159883333Y-102941904D01*
X159959523Y-102941904D01*
X160073809Y-102980000D01*
X160111904Y-103018095D01*
M02*
