%TF.GenerationSoftware,KiCad,Pcbnew,(6.0.11)*%
%TF.CreationDate,2024-01-24T22:39:07+00:00*%
%TF.ProjectId,BBC_Volume_Extender_Internal,4242435f-566f-46c7-956d-655f45787465,rev?*%
%TF.SameCoordinates,Original*%
%TF.FileFunction,Copper,L1,Top*%
%TF.FilePolarity,Positive*%
%FSLAX46Y46*%
G04 Gerber Fmt 4.6, Leading zero omitted, Abs format (unit mm)*
G04 Created by KiCad (PCBNEW (6.0.11)) date 2024-01-24 22:39:07*
%MOMM*%
%LPD*%
G01*
G04 APERTURE LIST*
%TA.AperFunction,ComponentPad*%
%ADD10O,1.700000X1.700000*%
%TD*%
%TA.AperFunction,ComponentPad*%
%ADD11R,1.700000X1.700000*%
%TD*%
%TA.AperFunction,ComponentPad*%
%ADD12C,1.440000*%
%TD*%
%TA.AperFunction,Conductor*%
%ADD13C,0.400000*%
%TD*%
%TA.AperFunction,Conductor*%
%ADD14C,0.250000*%
%TD*%
%TA.AperFunction,Conductor*%
%ADD15C,0.500000*%
%TD*%
G04 APERTURE END LIST*
D10*
%TO.P,J1,1,Pin_1*%
%TO.N,/EXT_3*%
X158705000Y-87710000D03*
%TO.P,J1,2,Pin_2*%
%TO.N,/EXT_2*%
X156165000Y-87710000D03*
D11*
%TO.P,J1,3,Pin_3*%
%TO.N,/EXT_1*%
X153625000Y-87710000D03*
%TD*%
D12*
%TO.P,RV1,1,1*%
%TO.N,/INT_1*%
X158690000Y-100835000D03*
%TO.P,RV1,2,2*%
%TO.N,/INT_2*%
X156150000Y-98295000D03*
%TO.P,RV1,3,3*%
%TO.N,/INT_3*%
X153610000Y-100835000D03*
%TD*%
D11*
%TO.P,J2,1,Pin_1*%
%TO.N,/INT_1*%
X158675000Y-91365000D03*
D10*
%TO.P,J2,2,Pin_2*%
%TO.N,/EXT_3*%
X158675000Y-93905000D03*
%TO.P,J2,3,Pin_3*%
%TO.N,/EXT_2*%
X156135000Y-91365000D03*
%TO.P,J2,4,Pin_4*%
%TO.N,/INT_2*%
X156135000Y-93905000D03*
%TO.P,J2,5,Pin_5*%
%TO.N,/INT_3*%
X153595000Y-91365000D03*
%TO.P,J2,6,Pin_6*%
%TO.N,/EXT_1*%
X153595000Y-93905000D03*
%TD*%
D13*
%TO.N,/INT_3*%
X152280000Y-99505000D02*
X153610000Y-100835000D01*
X152280000Y-92680000D02*
X152280000Y-99505000D01*
X153595000Y-91365000D02*
X152280000Y-92680000D01*
%TO.N,/INT_2*%
X156135000Y-98280000D02*
X156150000Y-98295000D01*
X156135000Y-93905000D02*
X156135000Y-98280000D01*
%TO.N,/INT_1*%
X160020000Y-99505000D02*
X158690000Y-100835000D01*
X158675000Y-91365000D02*
X160020000Y-92710000D01*
X160020000Y-92710000D02*
X160020000Y-99505000D01*
%TO.N,/EXT_1*%
X154860000Y-88945000D02*
X154860000Y-92640000D01*
X154860000Y-92640000D02*
X153595000Y-93905000D01*
X153625000Y-87710000D02*
X154860000Y-88945000D01*
D14*
%TO.N,/EXT_2*%
X156135000Y-87740000D02*
X156165000Y-87710000D01*
D15*
X156135000Y-91365000D02*
X156135000Y-87740000D01*
D13*
%TO.N,/EXT_3*%
X157400000Y-89015000D02*
X158705000Y-87710000D01*
X158675000Y-93905000D02*
X157400000Y-92630000D01*
X157400000Y-92630000D02*
X157400000Y-89015000D01*
%TD*%
M02*
