%TF.GenerationSoftware,KiCad,Pcbnew,(6.0.11)*%
%TF.CreationDate,2024-01-24T22:39:07+00:00*%
%TF.ProjectId,BBC_Volume_Extender_Internal,4242435f-566f-46c7-956d-655f45787465,rev?*%
%TF.SameCoordinates,Original*%
%TF.FileFunction,Legend,Bot*%
%TF.FilePolarity,Positive*%
%FSLAX46Y46*%
G04 Gerber Fmt 4.6, Leading zero omitted, Abs format (unit mm)*
G04 Created by KiCad (PCBNEW (6.0.11)) date 2024-01-24 22:39:07*
%MOMM*%
%LPD*%
G01*
G04 APERTURE LIST*
%ADD10C,0.200000*%
G04 APERTURE END LIST*
D10*
X153554761Y-105337619D02*
X153888095Y-104337619D01*
X154221428Y-105337619D01*
X154697619Y-104337619D02*
X154602380Y-104385238D01*
X154554761Y-104432857D01*
X154507142Y-104528095D01*
X154507142Y-104813809D01*
X154554761Y-104909047D01*
X154602380Y-104956666D01*
X154697619Y-105004285D01*
X154840476Y-105004285D01*
X154935714Y-104956666D01*
X154983333Y-104909047D01*
X155030952Y-104813809D01*
X155030952Y-104528095D01*
X154983333Y-104432857D01*
X154935714Y-104385238D01*
X154840476Y-104337619D01*
X154697619Y-104337619D01*
X155602380Y-104337619D02*
X155507142Y-104385238D01*
X155459523Y-104480476D01*
X155459523Y-105337619D01*
X156411904Y-105004285D02*
X156411904Y-104337619D01*
X155983333Y-105004285D02*
X155983333Y-104480476D01*
X156030952Y-104385238D01*
X156126190Y-104337619D01*
X156269047Y-104337619D01*
X156364285Y-104385238D01*
X156411904Y-104432857D01*
X156888095Y-104337619D02*
X156888095Y-105004285D01*
X156888095Y-104909047D02*
X156935714Y-104956666D01*
X157030952Y-105004285D01*
X157173809Y-105004285D01*
X157269047Y-104956666D01*
X157316666Y-104861428D01*
X157316666Y-104337619D01*
X157316666Y-104861428D02*
X157364285Y-104956666D01*
X157459523Y-105004285D01*
X157602380Y-105004285D01*
X157697619Y-104956666D01*
X157745238Y-104861428D01*
X157745238Y-104337619D01*
X158602380Y-104385238D02*
X158507142Y-104337619D01*
X158316666Y-104337619D01*
X158221428Y-104385238D01*
X158173809Y-104480476D01*
X158173809Y-104861428D01*
X158221428Y-104956666D01*
X158316666Y-105004285D01*
X158507142Y-105004285D01*
X158602380Y-104956666D01*
X158650000Y-104861428D01*
X158650000Y-104766190D01*
X158173809Y-104670952D01*
X153173809Y-103251428D02*
X153507142Y-103251428D01*
X153650000Y-102727619D02*
X153173809Y-102727619D01*
X153173809Y-103727619D01*
X153650000Y-103727619D01*
X153983333Y-102727619D02*
X154507142Y-103394285D01*
X153983333Y-103394285D02*
X154507142Y-102727619D01*
X154745238Y-103394285D02*
X155126190Y-103394285D01*
X154888095Y-103727619D02*
X154888095Y-102870476D01*
X154935714Y-102775238D01*
X155030952Y-102727619D01*
X155126190Y-102727619D01*
X155840476Y-102775238D02*
X155745238Y-102727619D01*
X155554761Y-102727619D01*
X155459523Y-102775238D01*
X155411904Y-102870476D01*
X155411904Y-103251428D01*
X155459523Y-103346666D01*
X155554761Y-103394285D01*
X155745238Y-103394285D01*
X155840476Y-103346666D01*
X155888095Y-103251428D01*
X155888095Y-103156190D01*
X155411904Y-103060952D01*
X156316666Y-103394285D02*
X156316666Y-102727619D01*
X156316666Y-103299047D02*
X156364285Y-103346666D01*
X156459523Y-103394285D01*
X156602380Y-103394285D01*
X156697619Y-103346666D01*
X156745238Y-103251428D01*
X156745238Y-102727619D01*
X157650000Y-102727619D02*
X157650000Y-103727619D01*
X157650000Y-102775238D02*
X157554761Y-102727619D01*
X157364285Y-102727619D01*
X157269047Y-102775238D01*
X157221428Y-102822857D01*
X157173809Y-102918095D01*
X157173809Y-103203809D01*
X157221428Y-103299047D01*
X157269047Y-103346666D01*
X157364285Y-103394285D01*
X157554761Y-103394285D01*
X157650000Y-103346666D01*
X158507142Y-102775238D02*
X158411904Y-102727619D01*
X158221428Y-102727619D01*
X158126190Y-102775238D01*
X158078571Y-102870476D01*
X158078571Y-103251428D01*
X158126190Y-103346666D01*
X158221428Y-103394285D01*
X158411904Y-103394285D01*
X158507142Y-103346666D01*
X158554761Y-103251428D01*
X158554761Y-103156190D01*
X158078571Y-103060952D01*
X158983333Y-102727619D02*
X158983333Y-103394285D01*
X158983333Y-103203809D02*
X159030952Y-103299047D01*
X159078571Y-103346666D01*
X159173809Y-103394285D01*
X159269047Y-103394285D01*
X154721428Y-101784285D02*
X154959523Y-101117619D01*
X155197619Y-101784285D01*
X155769047Y-102117619D02*
X155864285Y-102117619D01*
X155959523Y-102070000D01*
X156007142Y-102022380D01*
X156054761Y-101927142D01*
X156102380Y-101736666D01*
X156102380Y-101498571D01*
X156054761Y-101308095D01*
X156007142Y-101212857D01*
X155959523Y-101165238D01*
X155864285Y-101117619D01*
X155769047Y-101117619D01*
X155673809Y-101165238D01*
X155626190Y-101212857D01*
X155578571Y-101308095D01*
X155530952Y-101498571D01*
X155530952Y-101736666D01*
X155578571Y-101927142D01*
X155626190Y-102022380D01*
X155673809Y-102070000D01*
X155769047Y-102117619D01*
X156530952Y-101212857D02*
X156578571Y-101165238D01*
X156530952Y-101117619D01*
X156483333Y-101165238D01*
X156530952Y-101212857D01*
X156530952Y-101117619D01*
X157530952Y-101117619D02*
X156959523Y-101117619D01*
X157245238Y-101117619D02*
X157245238Y-102117619D01*
X157150000Y-101974761D01*
X157054761Y-101879523D01*
X156959523Y-101831904D01*
M02*
