%TF.GenerationSoftware,KiCad,Pcbnew,(6.0.11)*%
%TF.CreationDate,2024-01-24T22:39:11+00:00*%
%TF.ProjectId,BBC_Volume_Extender_Internal,4242435f-566f-46c7-956d-655f45787465,rev?*%
%TF.SameCoordinates,Original*%
%TF.FileFunction,Drillmap*%
%TF.FilePolarity,Positive*%
%FSLAX45Y45*%
G04 Gerber Fmt 4.5, Leading zero omitted, Abs format (unit mm)*
G04 Created by KiCad (PCBNEW (6.0.11)) date 2024-01-24 22:39:11*
%MOMM*%
%LPD*%
G01*
G04 APERTURE LIST*
%ADD10C,0.100000*%
%ADD11C,0.200000*%
G04 APERTURE END LIST*
D10*
X15110000Y-10583000D02*
X16120000Y-10583000D01*
X16120000Y-10583000D02*
X16120000Y-8586000D01*
X16120000Y-8586000D02*
X15110000Y-8586000D01*
X15110000Y-8586000D02*
X15110000Y-10583000D01*
D11*
X15362619Y-10898476D02*
X15362619Y-10698476D01*
X15410238Y-10698476D01*
X15438809Y-10708000D01*
X15457857Y-10727048D01*
X15467381Y-10746095D01*
X15476905Y-10784190D01*
X15476905Y-10812762D01*
X15467381Y-10850857D01*
X15457857Y-10869905D01*
X15438809Y-10888952D01*
X15410238Y-10898476D01*
X15362619Y-10898476D01*
X15562619Y-10898476D02*
X15562619Y-10765143D01*
X15562619Y-10803238D02*
X15572143Y-10784190D01*
X15581667Y-10774667D01*
X15600714Y-10765143D01*
X15619762Y-10765143D01*
X15686428Y-10898476D02*
X15686428Y-10765143D01*
X15686428Y-10698476D02*
X15676905Y-10708000D01*
X15686428Y-10717524D01*
X15695952Y-10708000D01*
X15686428Y-10698476D01*
X15686428Y-10717524D01*
X15810238Y-10898476D02*
X15791190Y-10888952D01*
X15781667Y-10869905D01*
X15781667Y-10698476D01*
X15915000Y-10898476D02*
X15895952Y-10888952D01*
X15886428Y-10869905D01*
X15886428Y-10698476D01*
X16143571Y-10898476D02*
X16143571Y-10698476D01*
X16210238Y-10841333D01*
X16276905Y-10698476D01*
X16276905Y-10898476D01*
X16457857Y-10898476D02*
X16457857Y-10793714D01*
X16448333Y-10774667D01*
X16429286Y-10765143D01*
X16391190Y-10765143D01*
X16372143Y-10774667D01*
X16457857Y-10888952D02*
X16438809Y-10898476D01*
X16391190Y-10898476D01*
X16372143Y-10888952D01*
X16362619Y-10869905D01*
X16362619Y-10850857D01*
X16372143Y-10831810D01*
X16391190Y-10822286D01*
X16438809Y-10822286D01*
X16457857Y-10812762D01*
X16553095Y-10765143D02*
X16553095Y-10965143D01*
X16553095Y-10774667D02*
X16572143Y-10765143D01*
X16610238Y-10765143D01*
X16629286Y-10774667D01*
X16638809Y-10784190D01*
X16648333Y-10803238D01*
X16648333Y-10860381D01*
X16638809Y-10879429D01*
X16629286Y-10888952D01*
X16610238Y-10898476D01*
X16572143Y-10898476D01*
X16553095Y-10888952D01*
X16734048Y-10879429D02*
X16743571Y-10888952D01*
X16734048Y-10898476D01*
X16724524Y-10888952D01*
X16734048Y-10879429D01*
X16734048Y-10898476D01*
X16734048Y-10774667D02*
X16743571Y-10784190D01*
X16734048Y-10793714D01*
X16724524Y-10784190D01*
X16734048Y-10774667D01*
X16734048Y-10793714D01*
M02*
